<?xml version="1.0" encoding="UTF-8"?>
<svg version="1.1" xmlns="http://www.w3.org/2000/svg" width="204" height="192">
<path d="M0 0 C67.32 0 134.64 0 204 0 C204 63.36 204 126.72 204 192 C136.68 192 69.36 192 0 192 C0 128.64 0 65.28 0 0 Z " fill="#CACCD3" transform="translate(0,0)"/>
<path d="M0 0 C1.38370415 -0.00202747 2.76740724 -0.00494446 4.15110779 -0.00869751 C7.04330678 -0.01309965 9.93522632 -0.0067656 12.82739258 0.00732422 C16.48636924 0.02430464 20.14468618 0.01435817 23.80363941 -0.00300217 C61.17554048 -0.15359467 61.17554048 -0.15359467 73.68359375 7.3984375 C75.07578125 8.171875 75.07578125 8.171875 76.49609375 8.9609375 C78.51663264 10.2887202 80.02317073 11.65894672 81.68359375 13.3984375 C82.67359375 13.8934375 82.67359375 13.8934375 83.68359375 14.3984375 C83.68359375 15.3884375 83.68359375 16.3784375 83.68359375 17.3984375 C84.67359375 17.7284375 85.66359375 18.0584375 86.68359375 18.3984375 C88.67755632 21.05927719 90.68359375 24.01086075 90.68359375 27.3984375 C91.34359375 27.3984375 92.00359375 27.3984375 92.68359375 27.3984375 C98.7124753 39.4562006 96.68359375 52.07388408 96.68359375 65.3984375 C46.85359375 65.3984375 -2.97640625 65.3984375 -54.31640625 65.3984375 C-54.31640625 38.28305288 -54.31640625 38.28305288 -47.31640625 29.3984375 C-47.00703125 28.5940625 -46.69765625 27.7896875 -46.37890625 26.9609375 C-45.13440192 23.95948587 -43.37027509 21.90159015 -41.31640625 19.3984375 C-41.03152344 18.7590625 -40.74664062 18.1196875 -40.453125 17.4609375 C-38.22563428 13.41930486 -33.97245616 11.08759818 -30.31640625 8.3984375 C-29.71183594 7.91761719 -29.10726562 7.43679687 -28.484375 6.94140625 C-19.78288191 0.19622074 -10.70476053 -0.04987942 0 0 Z " fill="#FEFEFE" transform="translate(78.31640625,126.6015625)"/>
<path d="M0 0 C6.95138219 -0.21279741 15.19834738 -0.33175279 20.7421875 4.515625 C21.97254813 5.99817135 23.08267587 7.57792982 24.1875 9.15625 C25.5796875 10.5175 25.5796875 10.5175 27 11.90625 C29.1875 14.15625 29.1875 14.15625 29.1875 16.15625 C29.8475 16.15625 30.5075 16.15625 31.1875 16.15625 C37.83882301 42.61307499 37.83882301 42.61307499 33.25 51.65625 C32.88003906 52.26984375 32.51007813 52.8834375 32.12890625 53.515625 C31.01204468 55.25013347 31.01204468 55.25013347 30.6875 57.90625 C30.00435748 60.98039132 28.49305714 62.04282262 26.1875 64.15625 C25.30149295 65.23059986 24.42680344 66.31436371 23.5625 67.40625 C22.77875 68.31375 21.995 69.22125 21.1875 70.15625 C20.5275 70.15625 19.8675 70.15625 19.1875 70.15625 C19.0225 70.795625 18.8575 71.435 18.6875 72.09375 C17.1875 74.15625 17.1875 74.15625 15.2734375 74.64453125 C13.25174845 74.8838478 11.21908061 75.02518028 9.1875 75.15625 C9.1875 75.81625 9.1875 76.47625 9.1875 77.15625 C6.81218606 77.2106465 4.43814117 77.25010864 2.0625 77.28125 C1.39734375 77.29800781 0.7321875 77.31476563 0.046875 77.33203125 C-4.32295073 77.37487268 -7.75145075 76.73422368 -11.8125 75.15625 C-12.6375 74.929375 -13.4625 74.7025 -14.3125 74.46875 C-17.99359532 72.53617496 -20.47151194 69.56717418 -22.8125 66.15625 C-22.8125 65.49625 -22.8125 64.83625 -22.8125 64.15625 C-23.8025 64.15625 -24.7925 64.15625 -25.8125 64.15625 C-30.40475513 54.74622722 -30.40475513 54.74622722 -29.8125 50.15625 C-30.4725 50.15625 -31.1325 50.15625 -31.8125 50.15625 C-34.58074198 40.20666686 -33.81368907 27.63525744 -29.8125 18.15625 C-29.1525 18.15625 -28.4925 18.15625 -27.8125 18.15625 C-26.73724806 15.50396188 -25.71793849 12.87256546 -24.8125 10.15625 C-24.1525 10.15625 -23.4925 10.15625 -22.8125 10.15625 C-22.57789062 9.37765625 -22.34328125 8.5990625 -22.1015625 7.796875 C-20.14823447 3.79551213 -17.48423378 3.36566425 -13.453125 1.9375 C-8.92278758 0.59716349 -4.66922297 0.25940128 0 0 Z " fill="#FDFDFD" transform="translate(98.8125,37.84375)"/>
<path d="M0 0 C2 1 2 1 3.1171875 3.5390625 C4.15410127 7.60413155 4.22297407 11.20733368 4.125 15.375 C4.11597656 16.11105469 4.10695312 16.84710938 4.09765625 17.60546875 C4.07430144 19.4037888 4.03843836 21.20193911 4 23 C3.67 23 3.34 23 3 23 C0.88838269 7.25512528 0.88838269 7.25512528 0 0 Z " fill="#DADBDD" transform="translate(131,60)"/>
<path d="M0 0 C-0.61875 0.0825 -1.2375 0.165 -1.875 0.25 C-4.15723303 0.78648121 -4.15723303 0.78648121 -5 2.875 C-5.33 3.57625 -5.66 4.2775 -6 5 C-8.125 6.75 -8.125 6.75 -10 8 C-10 7.01 -10 6.02 -10 5 C-9.34 5 -8.68 5 -8 5 C-7.71125 4.195625 -7.4225 3.39125 -7.125 2.5625 C-5.35420017 -1.4709885 -3.85559812 -1.15667944 0 0 Z " fill="#E9EAED" transform="translate(84,43)"/>
</svg>
